<svg xmlns="http://www.w3.org/2000/svg" viewBox="0 0 64 64" role="img" aria-label="Mohammed and Rawdah Wedding">
  <defs>
    <linearGradient id="bg" x1="0%" y1="0%" x2="100%" y2="100%">
      <stop offset="0%" stop-color="#E8C4C4"/>
      <stop offset="50%" stop-color="#D4A5A5"/>
      <stop offset="100%" stop-color="#C9A962"/>
    </linearGradient>
  </defs>
  <circle cx="32" cy="32" r="32" fill="url(#bg)"/>
  <path fill="#FFFFFF" d="M32 48c-.6 0-1.1-.3-1.4-.7C27.8 44.2 16 34.8 16 24.5 16 19.2 20.1 15 25 15c2.8 0 5.4 1.5 7 3.9C33.6 16.5 36.2 15 39 15c4.9 0 9 4.2 9 9.5 0 10.3-11.8 19.7-14.6 22.8-.3.4-.8.7-1.4.7z"/>
  <circle cx="32" cy="32" r="30" fill="none" stroke="#FFFFFF" stroke-width="1.5" opacity="0.35"/>
</svg>
